#!OML:ASF F:\VICON\USERDATA\INSTALL\rory3\rory3.ASF
:FULLY-SPECIFIED
:DEGREES
64
root -0.10409537661232784 17.60420106687645 31.868778624662127 1.1049344897236604 4.8554583133957845 -2.782218185172586
lfemur -22.60312887818897 -0.48732789066349314 -22.41393904752184
ltibia 42.038462370763995
lfoot -7.401775327447171 -9.008414305285314
ltoes 0.4905275898534853
rfemur -2.75141185460609 -0.07761170487392488 28.256447270285598
rtibia 85.1172291783227
rfoot 14.799777453410224 -8.04479360307844
rtoes 10.376273393426732
lowerback 15.401165924201688 2.300833577285734 2.633435430505042
upperback -0.6946645949820657 3.64190425243455 0.8510510612927037
thorax -9.35875532972408 1.611452780504657 -1.569079412410797
lowerneck -19.78256263510163 -4.666663644065754 -2.2583831278991124
upperneck 14.640457635016613 -6.366153700965699 3.4261390503993114
head 7.971931097386025 -2.8131436231267974 0.7433884435852334
lclavicle -5.435721517514513e-16 2.64346121413195e-15
lhumerus -61.61680114968355 -8.035964778839181 98.63823052685947
lradius 112.09775707926858
lwrist 31.089375568244982
lhand -24.8872026783713 2.5721897227570434
lfingers 7.12502
lthumb 1.6204111382995225 32.55478904527043
rclavicle -5.435721517514512e-16 2.6434612141319496e-15
rhumerus -43.70141884238318 10.87159802656472 -97.33920843477905
rradius 105.48859142496188
rwrist -9.30657204277562
rhand -16.928195139321893 38.59579106519395
rfingers 7.12502
rthumb 9.304445011859965 9.567107532797555
65
root -0.1208412409188406 17.411534549017844 32.992988920586235 1.0009495202193186 4.74817600132843 -1.763437572687081
lfemur -20.74230358740526 -0.8641167496078617 -23.63003672490403
ltibia 45.87023752148245
lfoot -11.287876960255346 -6.152581233054789
ltoes 1.293610526817286
rfemur -6.8743907359425975 -1.3869921167820811 26.048342927532335
rtibia 92.41309106075981
rfoot 13.337268725252454 -7.708892693574141
rtoes 10.828051908126085
lowerback 15.854790899937505 2.2448183969494258 1.4358253395215232
upperback -0.45772828354174233 3.3275258991978887 0.5260847900685994
thorax -9.483721781584263 1.508841031879528 -0.9802364718727775
lowerneck -20.07898358966535 -4.571922060668158 -2.1527982772413257
upperneck 14.525062506529276 -6.2721666279521955 3.5437221333906876
head 7.969940441880902 -2.7468353550224074 0.7810371813599095
lclavicle -2.2071770551429982e-16 2.8784722495420347e-15
lhumerus -58.23758413626865 -9.599173249452097 99.31241787344587
lradius 111.30952558333095
lwrist 31.827055119729817
lhand -25.263231634623082 3.4673987919073244
lfingers 7.12502
lthumb 1.2572293124939917 33.452417670305664
rclavicle -2.2071770551429982e-16 2.8784722495420347e-15
rhumerus -44.39715401186352 9.710936245768476 -98.1894014734676
rradius 103.9921869003641
rwrist -8.903691859092492
rhand -16.956658436246233 38.4561359878954
rfingers 7.12502
rthumb 9.276848885093361 9.41471425789835
66
root -0.13551006624515466 17.236721108415242 33.732548915703845 1.0819165131420978 4.381081758981963 -0.7795973362096795
lfemur -18.993093972846182 -1.4164257092815995 -25.0073724327247
ltibia 48.36178872442307
lfoot -14.916031615600298 -3.1559577211760064
ltoes 0.2713007082285692
rfemur -12.188685066743457 -2.611222855910365 23.806301511881077
rtibia 98.09176074998823
rfoot 11.472162393349475 -7.132934068167977
rtoes 11.314001707300944
lowerback 16.172583195451384 2.173965696552429 0.1834184910929837
upperback -0.2805871205264918 2.9734016750635615 0.1551748642619366
thorax -9.59058981619388 1.3907814207549476 -0.49733870707452354
lowerneck -20.48908379073556 -4.496257156842284 -2.0684360108650304
upperneck 14.340495167131953 -6.196735344052876 3.6248033327989893
head 7.9605381143641205 -2.691048510548072 0.8067960355905459
lclavicle -5.012689129230594e-16 2.6751386630969643e-15
lhumerus -54.656366584259025 -11.586627445705528 99.73603309831117
lradius 110.0204176901045
lwrist 32.60475461073188
lhand -25.68104337324851 4.2309892986468745
lfingers 7.12502
lthumb 0.8537233911759493 34.216266069001115
rclavicle -5.012689129230594e-16 2.6751386630969643e-15
rhumerus -45.49474477733355 8.323294525669276 -99.0602321434824
rradius 102.71538845854589
rwrist -8.774180202565283
rhand -16.980484307530215 38.31400839555472
rfingers 7.12502
rthumb 9.25379301812918 9.267000500974165
67
root -0.13585378723934896 17.12533038978648 35.18549121575233 1.3863451918684238 4.074731309958274 -0.016672538251262026
lfemur -16.392581932918517 -1.8086527866654845 -25.829819173167923
ltibia 50.25753496672991
lfoot -17.161566299042775 -0.512184918654417
ltoes -1.1383958485809664
rfemur -17.168933207514783 -3.4965229038159005 22.342463364911413
rtibia 103.33978092203782
rfoot 10.078936837836125 -6.485772460593541
rtoes 12.112687003511418
lowerback 16.426693346891952 2.1167799476066955 -0.6460973354568507
upperback -0.16017703010450446 2.7121427388142214 -0.07305896426622782
thorax -9.657138451853191 1.300953670273671 -0.020904232944878753
lowerneck -20.851541672951353 -4.373575471071682 -1.9916828116512961
upperneck 14.207528127709525 -6.041300924841131 3.7077578557858777
head 7.966870965581083 -2.6025957549178926 0.840059203985364
lclavicle -2.5821966975207457e-17 3.01961410076027e-15
lhumerus -50.492070652006376 -13.378701864335508 99.94973618008366
lradius 108.82142027564396
lwrist 33.1255788925363
lhand -25.79976270896869 4.580700278679316
lfingers 7.12502
lthumb 0.7390951202484127 34.56679857044673
rclavicle -2.582196697520785e-17 3.01961410076027e-15
rhumerus -46.51249969158563 7.203654035866597 -99.64076540068214
rradius 102.09486848544536
rwrist -8.914553369626352
rhand -16.869202827939784 38.285063704029426
rfingers 7.12502
rthumb 9.361213459172378 9.217750895013477
68
root -0.1432871757316608 17.056245047113034 35.7791023357282 1.7374307320713829 3.654245559984079 0.2614747333567058
lfemur -14.124065348631936 -2.2816287134371422 -26.364014276258953
ltibia 50.25215193179898
lfoot -18.616257345389013 1.0125731132488598
ltoes -3.1694588928380423
rfemur -23.08240612499598 -4.393080635672513 21.536258320269553
rtibia 105.43860465126448
rfoot 8.306718878120652 -6.216155384514551
rtoes 11.72256174373159
lowerback 16.5023326290248 1.8949088370704688 -1.2208201708900377
upperback -0.1820285708557685 2.299049976215658 -0.15860571186103511
thorax -9.746237572357849 1.1337492236216926 0.3153092671783684
lowerneck -21.2061100034275 -4.233874202027066 -1.9514903918743893
upperneck 14.083595000828389 -5.852983967745567 3.6828408572783413
head 7.964042378653032 -2.505962933219936 0.8462849163767316
lclavicle -5.032929855987478e-16 2.6729101960497205e-15
lhumerus -46.930623649992725 -15.079015487958692 99.79780751068814
lradius 107.62358979722507
lwrist 33.15408866433137
lhand -25.66649558029667 4.101252135261299
lfingers 7.12502
lthumb 0.867832924717768 34.09185838568968
rclavicle -5.032929855987478e-16 2.6729101960497205e-15
rhumerus -48.12645646776906 6.214821495887101 -100.10717738356419
rradius 101.97163412216135
rwrist -9.48016782136526
rhand -16.725938566175092 38.278540723571425
rfingers 7.12502
rthumb 9.499562286494069 9.17700969488005
